<svg width="60" height="84" viewBox="0 0 60 84" fill="none" xmlns="http://www.w3.org/2000/svg">
<path d="M58.6033 66.6715C56.77 65.1105 57.4833 61.663 55.58 59.962C57.4233 48.1845 52.2567 37.8035 46.0967 31.15C40.9267 25.5675 42.5933 20.1355 42.5933 15.435C42.5933 7.924 39.6567 0 30.76 0C21.25 0 18.6433 8.33 18.55 13.083C18.3233 24.5 20.7467 27.468 14.3833 35.777C6.89667 45.5525 5.79333 55.3035 7.48333 60.4765C6.69333 61.4425 5.62667 62.5135 3.63333 63.399C-1.87333 65.919 2.16333 70.1365 0.64 73.129C0.206666 73.9795 0 74.8685 0 75.719C0 78.344 1.98667 80.6155 5.59667 80.276C10.4667 79.821 14.96 83.4435 17.8667 83.4435C20.4333 83.4435 22.54 81.9105 23.52 79.8C28.11 78.6135 33.7767 78.764 38.3633 80.0065C39.1867 82.425 41.42 84 43.9033 84C49.34 84 50.3867 77.5285 56.6233 75.3375C58.87 74.55 60 72.261 60 70.1295C60 68.7645 59.5367 67.466 58.6033 66.6715ZM28.1133 30.044C27.05 30.044 26.17 29.141 24.78 28.056C23.02 26.684 21.23 25.893 21.25 24.451C21.25 23.4605 22.5133 23.156 24.1467 22.0675C25.9 20.902 26.5833 19.719 28.31 19.719C30.0767 19.719 30.61 20.657 33.01 21.7455C35.37 22.82 37.0133 23.24 37.0133 24.451C37.0133 25.6935 34.5433 26.5825 33.1533 27.489C31.11 28.812 30.06 30.044 28.1133 30.044ZM33.6633 11.7915C36.6033 12.285 36.9333 17.71 35.5267 20.3805L34.3433 19.873C34.9567 17.9725 34.9467 14.8435 32.8933 14.644C31.59 14.518 30.75 16.324 30.57 17.871C30.06 17.647 29.5033 17.486 28.8267 17.4265C29.0333 14.196 31.02 11.347 33.6633 11.7915ZM22.32 12.95C24.5733 12.362 25.9033 15.113 25.9133 17.9725L24.88 18.6375C24.74 17.437 24.23 15.498 22.95 15.911C21.58 16.359 21.8033 19.7015 22.5667 20.3875L21.5467 20.9825C20.1467 18.508 20.15 13.517 22.32 12.95ZM15.27 80.3005C8.72667 77.175 6.50333 77.8855 5.25333 77.8855C2.66333 77.8855 1.81667 75.859 2.79 73.941C3.61667 72.3135 3.36 70.609 3.15667 69.2405C2.84333 67.144 2.78667 66.4615 4.75 65.5585C7.46667 64.3475 8.67333 62.79 9.57333 61.6245C12.1 58.345 14.65 63.504 16.74 68.0995C18.0967 71.078 20.7667 72.5865 21.59 75.887C22.3467 78.9355 19.2233 82.1905 15.27 80.3005ZM38.56 73.7415C33.9467 76.097 28.07 77.1785 23.6733 74.788C23.0233 72.8175 21.9833 71.5435 20.8633 70.2625C22.66 69.7655 23.9933 67.4135 22.3967 65.051C20.6933 62.5275 17.2133 60.767 13.6967 57.911C10.4067 55.2405 9.36667 48.657 13.8467 41.3C11.6633 47.817 12.94 53.823 14.0367 55.5415C14.2633 52.0835 14.5233 46.3085 19.0233 39.389C21.2933 35.896 21.3267 31.283 21.3767 28.399L23.4433 29.883C24.9633 31.0625 26.2367 32.361 28.0633 32.361C30.7633 32.361 32.2567 30.73 34.3367 29.3755C35.15 28.8505 36.38 28.3185 37.4133 27.58C39.1467 36.246 46.3267 46.669 46.73 52.605C48.4 48.993 46.2567 40.306 46.2567 40.306C49.0633 44.8035 49.2867 48.552 49.41 53.151C51.3733 53.9945 53.48 56.1925 53.6733 59.087L52.8567 58.989C52.4367 55.7725 44.1667 51.0475 43.4233 57.1025C39.4567 57.736 40.9 64.3335 40.1 68.6105C39.7333 70.567 39.0533 72.114 38.56 73.7415ZM54.7133 73.598C51.43 74.928 49.2133 77.7525 47.69 79.506C44.7567 82.887 40.8767 81.2665 40.4633 78.1025C40.0267 74.7215 41.6633 72.877 42.37 69.0935C43.0133 65.639 42.2933 60.3225 43.8067 59.7555C44.79 65.891 50.6933 63.3115 52.04 61.6385C54.23 61.6385 54.4133 62.4155 54.9033 64.568C55.21 65.9155 55.6333 67.0495 56.83 68.383C58.2233 69.9475 57.7967 72.3485 54.7133 73.598ZM28.0467 28.077C25.8767 28.077 24.2533 26.5615 22.9333 25.3855C22.2567 24.787 23.1 23.681 23.7767 24.283C25.0667 25.431 26.3667 26.6455 28.0467 26.6455C30.07 26.6455 31.8533 24.829 34.27 23.828C35.0933 23.4885 35.5633 24.8255 34.7467 25.165C32.4 26.1345 30.5167 28.077 28.0467 28.077Z" fill="#FAFF00"/>
</svg>
